<?xml version="1.0" standalone="no"?>
<!DOCTYPE svg PUBLIC "-//W3C//DTD SVG 20010904//EN"
 "http://www.w3.org/TR/2001/REC-SVG-20010904/DTD/svg10.dtd">
<svg version="1.0" xmlns="http://www.w3.org/2000/svg"
 width="1280.000000pt" height="1280.000000pt" viewBox="0 0 1280.000000 1280.000000"
 preserveAspectRatio="xMidYMid meet">
<metadata>
Created by potrace 1.14, written by Peter Selinger 2001-2017
</metadata>
<g transform="translate(0.000000,1280.000000) scale(0.100000,-0.100000)"
fill="#000000" stroke="none">
<path d="M5938 12795 c-2 -2 -44 -6 -93 -9 -50 -3 -112 -8 -140 -11 -27 -2
-77 -7 -110 -10 -59 -6 -372 -50 -430 -61 -784 -147 -1459 -401 -2120 -797
-273 -164 -594 -391 -798 -567 -12 -10 -33 -28 -47 -40 -174 -150 -449 -414
-540 -520 -12 -14 -38 -43 -59 -65 -254 -276 -533 -659 -756 -1040 -115 -196
-286 -536 -347 -689 -10 -27 -27 -68 -37 -90 -26 -57 -122 -321 -159 -436 -60
-185 -150 -524 -166 -622 -3 -19 -8 -41 -10 -49 -7 -18 -63 -350 -71 -416 -3
-26 -7 -61 -10 -78 -2 -16 -7 -61 -10 -100 -3 -38 -8 -81 -10 -95 -27 -157
-27 -909 0 -1135 3 -22 7 -65 10 -95 15 -166 43 -345 87 -565 16 -82 32 -159
34 -170 31 -155 118 -452 212 -725 117 -336 330 -783 535 -1120 184 -302 461
-679 661 -900 144 -158 191 -207 296 -310 181 -179 223 -217 470 -424 39 -32
95 -75 205 -157 293 -219 602 -409 935 -575 165 -82 191 -94 328 -153 266
-116 736 -275 932 -316 8 -2 53 -13 100 -25 47 -12 96 -23 110 -25 14 -2 59
-11 100 -20 78 -17 83 -18 165 -30 28 -4 52 -9 55 -10 3 -2 33 -6 65 -10 33
-3 67 -8 75 -10 8 -2 38 -7 65 -10 28 -3 64 -8 80 -10 17 -2 64 -7 105 -10 41
-4 86 -8 100 -11 103 -16 688 -23 887 -10 124 8 320 25 353 31 14 2 50 7 80
10 30 3 66 8 80 10 14 2 43 7 65 10 23 3 52 8 65 10 14 3 39 7 55 9 116 16
548 115 685 158 209 64 498 163 555 188 11 5 70 30 130 56 211 89 529 244 645
315 84 52 181 109 185 109 13 0 432 285 507 344 14 11 41 32 59 46 18 14 49
39 69 55 82 66 115 90 126 89 6 -1 11 4 10 10 0 6 31 38 69 71 197 166 511
485 685 695 34 41 73 88 87 103 55 63 251 331 338 462 157 237 238 372 328
547 23 46 45 85 50 86 4 2 7 8 7 13 0 5 24 60 54 122 247 516 446 1141 526
1652 39 251 44 292 55 416 4 35 8 74 10 87 19 113 27 750 11 962 -11 156 -20
253 -32 345 -8 61 -12 96 -18 145 -3 25 -7 54 -10 65 -2 11 -7 40 -11 65 -12
79 -65 341 -91 445 -243 994 -702 1879 -1378 2655 -153 176 -462 482 -626 620
-36 30 -67 58 -70 61 -16 17 -222 179 -322 252 -157 114 -526 357 -543 357 -2
0 -43 23 -92 51 -201 116 -544 278 -793 374 -52 20 -104 41 -115 46 -37 16
-319 107 -425 137 -342 98 -618 152 -1050 207 -19 2 -73 7 -120 11 -47 3 -103
8 -125 11 -49 5 -762 13 -767 8z m535 -4910 c15 -3 37 -7 50 -9 246 -44 506
-179 694 -363 105 -103 145 -152 211 -260 144 -233 205 -449 205 -723 -1 -170
-18 -276 -68 -428 -187 -558 -709 -935 -1294 -934 -96 0 -220 12 -291 27 -47
11 -138 36 -155 44 -11 5 -50 21 -86 35 -439 178 -766 609 -827 1091 -9 68 -9
256 0 335 16 147 95 383 168 501 16 27 30 52 30 55 0 4 26 41 57 83 133 177
332 341 524 430 94 43 217 86 274 95 20 4 41 8 45 11 4 2 38 7 76 11 38 4 71
8 73 10 6 6 279 -4 314 -11z"/>
<path d="M11870 2176 c0 -2 8 -10 18 -17 15 -13 16 -12 3 4 -13 16 -21 21 -21
13z"/>
<path d="M11153 1405 c0 -8 4 -12 9 -9 5 3 6 10 3 15 -9 13 -12 11 -12 -6z"/>
<path d="M10910 1246 c0 -2 7 -7 16 -10 8 -3 12 -2 9 4 -6 10 -25 14 -25 6z"/>
<path d="M9636 1082 c-3 -5 1 -9 9 -9 8 0 12 4 9 9 -3 4 -7 8 -9 8 -2 0 -6 -4
-9 -8z"/>
<path d="M9715 1080 c3 -5 8 -10 11 -10 2 0 4 5 4 10 0 6 -5 10 -11 10 -5 0
-7 -4 -4 -10z"/>
</g>
</svg>
